<svg width="15" height="14" viewBox="0 0 15 14" fill="none" xmlns="http://www.w3.org/2000/svg">
<path d="M6.66504 9.9987L7.99837 11.332C8.12969 11.4634 8.2856 11.5675 8.45718 11.6386C8.62876 11.7097 8.81265 11.7462 8.99837 11.7462C9.18409 11.7462 9.36799 11.7097 9.53957 11.6386C9.71115 11.5675 9.86705 11.4634 9.99837 11.332C10.1297 11.2007 10.2339 11.0448 10.3049 10.8732C10.376 10.7016 10.4126 10.5177 10.4126 10.332C10.4126 10.1463 10.376 9.96242 10.3049 9.79084C10.2339 9.61926 10.1297 9.46335 9.99837 9.33203M8.66519 7.99871L10.3319 9.66538C10.5971 9.93059 10.9568 10.0796 11.3319 10.0796C11.7069 10.0796 12.0666 9.93059 12.3319 9.66538C12.5971 9.40016 12.7461 9.04045 12.7461 8.66537C12.7461 8.2903 12.5971 7.93059 12.3319 7.66537L9.74519 5.07871C9.37019 4.70417 8.86186 4.4938 8.33186 4.4938C7.80185 4.4938 7.29352 4.70417 6.91852 5.07871L6.33186 5.66537C6.06664 5.93059 5.70693 6.07959 5.33186 6.07959C4.95678 6.07959 4.59707 5.93059 4.33186 5.66537C4.06664 5.40016 3.91764 5.04045 3.91764 4.66537C3.91764 4.2903 4.06664 3.93059 4.33186 3.66537L6.20519 1.79204C6.81335 1.18547 7.60645 0.799076 8.45895 0.694023C9.31145 0.58897 10.1746 0.771262 10.9119 1.21204L11.2252 1.39871C11.509 1.57003 11.8466 1.62945 12.1719 1.56537L13.3319 1.33204M13.3317 0.665365L13.9984 7.9987H12.665M1.33171 0.665365L0.665039 7.9987L4.99837 12.332C5.26359 12.5972 5.6233 12.7462 5.99837 12.7462C6.37344 12.7462 6.73316 12.5972 6.99837 12.332C7.26359 12.0668 7.41259 11.7071 7.41259 11.332C7.41259 10.957 7.26359 10.5972 6.99837 10.332M1.33171 1.33203H6.66504" stroke="white" stroke-width="1.33" stroke-linecap="round" stroke-linejoin="round"/>
</svg>
