<svg width="15" height="15" viewBox="0 0 15 15" fill="none" xmlns="http://www.w3.org/2000/svg">
<path d="M8.9793 8.97913L5.7793 5.77913M13.7126 13.7125L12.7793 12.7791M1.97923 1.97907L1.0459 1.04574M11.8172 13.7023C11.5672 13.9524 11.228 14.093 10.8744 14.093C10.5208 14.0931 10.1816 13.9527 9.9315 13.7027C9.6814 13.4527 9.54086 13.1135 9.5408 12.7599C9.54074 12.4063 9.68116 12.0671 9.93117 11.817L8.75317 12.9957C8.50307 13.2458 8.16386 13.3863 7.81017 13.3863C7.45647 13.3863 7.11727 13.2458 6.86717 12.9957C6.61707 12.7456 6.47656 12.4064 6.47656 12.0527C6.47656 11.699 6.61707 11.3598 6.86717 11.1097L11.1098 6.867C11.3599 6.6169 11.6991 6.4764 12.0528 6.4764C12.4065 6.4764 12.7457 6.6169 12.9958 6.867C13.2459 7.1171 13.3864 7.45631 13.3864 7.81C13.3864 8.1637 13.2459 8.5029 12.9958 8.753L11.8172 9.931C12.0673 9.68099 12.4064 9.54057 12.7601 9.54064C13.1137 9.5407 13.4528 9.68124 13.7028 9.93134C13.9528 10.1814 14.0933 10.5206 14.0932 10.8742C14.0931 11.2279 13.9526 11.567 13.7025 11.817L11.8172 13.7023ZM3.64841 7.89107C3.39831 8.14117 3.0591 8.28168 2.70541 8.28168C2.35171 8.28168 2.01251 8.14117 1.76241 7.89107C1.51231 7.64097 1.3718 7.30177 1.3718 6.94807C1.3718 6.59438 1.51231 6.25517 1.76241 6.00507L2.94107 4.82707C2.81724 4.95087 2.67023 5.04906 2.50845 5.11603C2.34666 5.18301 2.17327 5.21747 1.99817 5.21744C1.64454 5.21738 1.30542 5.07684 1.05541 4.82674C0.931614 4.7029 0.833425 4.5559 0.766445 4.39411C0.699466 4.23233 0.665008 4.05894 0.665039 3.88384C0.665102 3.53021 0.805641 3.19108 1.05574 2.94107L2.94107 1.05574C3.19108 0.805641 3.53021 0.665102 3.88384 0.665039C4.05894 0.665008 4.23233 0.699466 4.39411 0.766445C4.5559 0.833425 4.7029 0.931614 4.82674 1.05541C4.95058 1.1792 5.04882 1.32617 5.11585 1.48793C5.18289 1.64969 5.21741 1.82307 5.21744 1.99817C5.21747 2.17327 5.18301 2.34666 5.11603 2.50845C5.04906 2.67023 4.95087 2.81724 4.82707 2.94107L6.00507 1.76241C6.25517 1.51231 6.59438 1.3718 6.94807 1.3718C7.30177 1.3718 7.64097 1.51231 7.89107 1.76241C8.14117 2.01251 8.28168 2.35171 8.28168 2.70541C8.28168 3.0591 8.14117 3.39831 7.89107 3.64841L3.64841 7.89107Z" stroke="white" stroke-width="1.33" stroke-linecap="round" stroke-linejoin="round"/>
</svg>
