<svg width="16" height="16" viewBox="0 0 16 16" fill="none" xmlns="http://www.w3.org/2000/svg">
<path d="M7.33301 11.3332L8.66634 12.6665C8.79766 12.7978 8.95356 12.902 9.12514 12.9731C9.29672 13.0441 9.48062 13.0807 9.66634 13.0807C9.85206 13.0807 10.036 13.0441 10.2075 12.9731C10.3791 12.902 10.535 12.7978 10.6663 12.6665C10.7977 12.5352 10.9018 12.3793 10.9729 12.2077C11.044 12.0361 11.0806 11.8522 11.0806 11.6665C11.0806 11.4808 11.044 11.2969 10.9729 11.1253C10.9018 10.9537 10.7977 10.7978 10.6663 10.6665M9.33316 9.33318L10.9998 10.9998C11.265 11.2651 11.6248 11.4141 11.9998 11.4141C12.3749 11.4141 12.7346 11.2651 12.9998 10.9998C13.265 10.7346 13.414 10.3749 13.414 9.99985C13.414 9.62477 13.265 9.26506 12.9998 8.99985L10.4132 6.41318C10.0382 6.03865 9.52983 5.82827 8.99983 5.82827C8.46982 5.82827 7.96149 6.03865 7.58649 6.41318L6.99983 6.99985C6.73461 7.26506 6.3749 7.41406 5.99983 7.41406C5.62475 7.41406 5.26504 7.26506 4.99983 6.99985C4.73461 6.73463 4.58561 6.37492 4.58561 5.99985C4.58561 5.62477 4.73461 5.26506 4.99983 4.99985L6.87316 3.12651C7.48132 2.51994 8.27442 2.13355 9.12692 2.0285C9.97942 1.92344 10.8426 2.10573 11.5798 2.54651L11.8932 2.73318C12.177 2.90451 12.5145 2.96393 12.8398 2.89985L13.9998 2.66651M13.9997 1.99984L14.6663 9.33317H13.333M1.99967 1.99984L1.33301 9.33317L5.66634 13.6665C5.93156 13.9317 6.29127 14.0807 6.66634 14.0807C7.04141 14.0807 7.40112 13.9317 7.66634 13.6665C7.93156 13.4013 8.08055 13.0416 8.08055 12.6665C8.08055 12.2914 7.93156 11.9317 7.66634 11.6665M1.99967 2.6665H7.33301" stroke="#6B7280" stroke-width="1.33" stroke-linecap="round" stroke-linejoin="round"/>
</svg>
