<svg width="16" height="16" viewBox="0 0 16 16" fill="none" xmlns="http://www.w3.org/2000/svg">
<g clip-path="url(#clip0_367_1732)">
<path d="M8.00021 3.33353C8.001 3.06688 7.94845 2.80277 7.84567 2.55673C7.74289 2.31069 7.59195 2.08768 7.40172 1.90083C7.2115 1.71397 6.98583 1.56704 6.73798 1.46868C6.49014 1.37032 6.22513 1.32251 5.95854 1.32807C5.69195 1.33363 5.42917 1.39244 5.18564 1.50104C4.94211 1.60964 4.72276 1.76585 4.54048 1.96047C4.3582 2.15508 4.21668 2.38419 4.12425 2.6343C4.03181 2.88441 3.99032 3.15048 4.00221 3.41686M8.00021 3.33353V12.0002M8.00021 3.33353C7.99943 3.06688 8.05209 2.80277 8.15487 2.55673C8.25765 2.31069 8.40859 2.08768 8.59882 1.90083C8.78905 1.71397 9.01472 1.56704 9.26256 1.46868C9.5104 1.37032 9.77541 1.32251 10.042 1.32807C10.3086 1.33363 10.5714 1.39244 10.8149 1.50104C11.0584 1.60964 11.2778 1.76585 11.4601 1.96047C11.6423 2.15508 11.7839 2.38419 11.8763 2.6343C11.9687 2.88441 12.0102 3.15048 11.9983 3.41686C12.3902 3.51762 12.754 3.70623 13.0622 3.9684C13.3704 4.23058 13.6148 4.55945 13.7771 4.9301C13.9394 5.30075 14.0152 5.70346 13.9987 6.10774C13.9823 6.51202 13.8741 6.90726 13.6823 7.26353M4.00221 3.41686C3.61035 3.51762 3.24655 3.70623 2.93837 3.9684C2.63019 4.23058 2.38571 4.55945 2.22344 4.9301C2.06118 5.30075 1.98539 5.70346 2.0018 6.10774C2.01822 6.51202 2.12643 6.90726 2.31821 7.26353M4.00221 3.41686C4.0154 3.73935 4.1065 4.05383 4.26761 4.3335M2.31821 7.26353C1.981 7.53748 1.71583 7.88968 1.54577 8.28949C1.37571 8.68929 1.30592 9.12459 1.34245 9.55752C1.37899 9.99045 1.52076 10.4079 1.75542 10.7735C1.99008 11.1392 2.31052 11.442 2.68888 11.6555M2.31821 7.26353C2.44017 7.1642 2.57083 7.07649 2.70836 7.00016M2.68888 11.6555C2.64216 12.017 2.67004 12.3843 2.7708 12.7345C2.87157 13.0848 3.04308 13.4108 3.27474 13.6922C3.50639 13.9736 3.79329 14.2045 4.11769 14.3707C4.4421 14.5369 4.79713 14.6348 5.16086 14.6584C5.5246 14.682 5.88931 14.6308 6.23247 14.5079C6.57563 14.3851 6.88997 14.1931 7.15605 13.944C7.42214 13.6949 7.63433 13.3939 7.77952 13.0596C7.92471 12.7252 7.99982 12.3647 8.00021 12.0002M2.68888 11.6555C3.08906 11.8812 3.54101 12.0003 4.00046 12.0001M8.00021 12.0002C8.0006 12.3647 8.07583 12.7252 8.22103 13.0596C8.36622 13.3939 8.57841 13.6949 8.84449 13.944C9.11058 14.1931 9.42491 14.3851 9.76808 14.5079C10.1112 14.6308 10.476 14.682 10.8397 14.6584C11.2034 14.6348 11.5584 14.5369 11.8829 14.3707C12.2073 14.2045 12.4942 13.9736 12.7258 13.6922C12.9575 13.4108 13.129 13.0848 13.2297 12.7345C13.3305 12.3843 13.3584 12.017 13.3117 11.6555M13.6823 7.26353C14.0195 7.53748 14.2847 7.88968 14.4548 8.28949C14.6248 8.68929 14.6946 9.12459 14.6581 9.55752C14.6216 9.99045 14.4798 10.4079 14.2451 10.7735C14.0105 11.1392 13.69 11.442 13.3117 11.6555M13.6823 7.26353C13.5604 7.1642 13.4298 7.07649 13.2923 7.00016M13.3117 11.6555C12.9115 11.8812 12.4598 12.0003 12.0003 12.0001M10.0003 8.66683C9.44062 8.46993 8.95187 8.11149 8.59588 7.63683C8.23988 7.16217 8.03263 6.59261 8.00033 6.00016C7.96802 6.59261 7.76077 7.16217 7.40477 7.63683C7.04878 8.11149 6.56003 8.46993 6.00033 8.66683M11.7331 4.3335C11.8944 4.05389 11.9857 3.73937 11.9991 3.41683" stroke="#6B7280" stroke-width="1.33" stroke-linecap="round" stroke-linejoin="round"/>
</g>
<defs>
<clipPath id="clip0_367_1732">
<rect width="16" height="16" fill="white"/>
</clipPath>
</defs>
</svg>
