<svg width="16" height="16" viewBox="0 0 16 16" fill="none" xmlns="http://www.w3.org/2000/svg">
<g clip-path="url(#clip0_367_1783)">
<path d="M9.60039 9.60023L6.40039 6.40023M14.3337 14.3336L13.4004 13.4002M2.60033 2.60016L1.66699 1.66683M12.4383 14.3234C12.1882 14.5735 11.8491 14.7141 11.4955 14.7141C11.1419 14.7142 10.8027 14.5738 10.5526 14.3238C10.3025 14.0738 10.162 13.7346 10.1619 13.381C10.1618 13.0274 10.3022 12.6882 10.5523 12.4381L9.37426 13.6168C9.12416 13.8669 8.78495 14.0074 8.43126 14.0074C8.07757 14.0074 7.73836 13.8669 7.48826 13.6168C7.23816 13.3667 7.09766 13.0275 7.09766 12.6738C7.09766 12.3201 7.23816 11.9809 7.48826 11.7308L11.7309 7.4881C11.981 7.238 12.3202 7.09749 12.6739 7.09749C13.0276 7.09749 13.3668 7.238 13.6169 7.4881C13.867 7.7382 14.0075 8.0774 14.0075 8.4311C14.0075 8.78479 13.867 9.124 13.6169 9.3741L12.4383 10.5521C12.6884 10.3021 13.0275 10.1617 13.3812 10.1617C13.7348 10.1618 14.0739 10.3023 14.3239 10.5524C14.5739 10.8025 14.7144 11.1417 14.7143 11.4953C14.7142 11.849 14.5737 12.1881 14.3236 12.4381L12.4383 14.3234ZM4.2695 8.51217C4.0194 8.76227 3.68019 8.90277 3.3265 8.90277C2.97281 8.90277 2.6336 8.76227 2.3835 8.51217C2.1334 8.26207 1.9929 7.92286 1.9929 7.56917C1.9929 7.21547 2.1334 6.87627 2.3835 6.62617L3.56217 5.44817C3.43833 5.57196 3.29132 5.67015 3.12954 5.73713C2.96776 5.80411 2.79437 5.83857 2.61926 5.83853C2.26563 5.83847 1.92651 5.69793 1.6765 5.44783C1.55271 5.324 1.45452 5.17699 1.38754 5.01521C1.32056 4.85342 1.2861 4.68003 1.28613 4.50493C1.2862 4.1513 1.42673 3.81218 1.67683 3.56217L3.56217 1.67683C3.81218 1.42673 4.1513 1.2862 4.50493 1.28613C4.68003 1.2861 4.85342 1.32056 5.01521 1.38754C5.17699 1.45452 5.324 1.55271 5.44783 1.6765C5.57167 1.80029 5.66991 1.94727 5.73695 2.10902C5.80398 2.27078 5.8385 2.44416 5.83853 2.61926C5.83857 2.79437 5.80411 2.96776 5.73713 3.12954C5.67015 3.29132 5.57196 3.43833 5.44817 3.56217L6.62617 2.3835C6.87627 2.1334 7.21547 1.9929 7.56917 1.9929C7.92286 1.9929 8.26207 2.1334 8.51217 2.3835C8.76227 2.6336 8.90277 2.97281 8.90277 3.3265C8.90277 3.68019 8.76227 4.0194 8.51217 4.2695L4.2695 8.51217Z" stroke="#6B7280" stroke-width="1.33" stroke-linecap="round" stroke-linejoin="round"/>
</g>
<defs>
<clipPath id="clip0_367_1783">
<rect width="16" height="16" fill="white"/>
</clipPath>
</defs>
</svg>
